<svg xmlns="http://www.w3.org/2000/svg" xmlns:xlink="http://www.w3.org/1999/xlink" version="1.1" viewBox="0 0 98 98"><g><rect x="35.0281" y="26.5618" transform="matrix(0.6644 0.7474 -0.7474 0.6644 33.5829 -17.2763)" width="2.0005" height="4.388"/><rect x="17.7772" y="36.8196" transform="matrix(-0.7475 0.6643 -0.6643 -0.7475 70.2603 48.9295)" width="16.1052" height="1.9998"/><path d="M81.9426,65.667h7.2574c0.4326,1.4187,1.7385,2.4604,3.2968,2.4604c1.9087,0,3.4619-1.5527,3.4619-3.4614   c0-1.9087-1.5532-3.4619-3.4619-3.4619c-1.5591,0-2.8654,1.043-3.2974,2.4629h-7.9482l-6.4829,5.0886V56.7944h11.5859   L71.45,43.5479V27.8237H60.7058v6.1752L49.1116,23.6943L11.8689,56.7944h11.5859v12.1362l-6.7061-5.2637H8.8001   c-0.4318-1.4199-1.7379-2.4629-3.2969-2.4629c-1.9087,0-3.4619,1.5532-3.4619,3.4619c0,1.9087,1.5532,3.4614,3.4619,3.4614   c1.5583,0,2.8638-1.0417,3.2963-2.4604h7.2579l7.3975,5.8066v1.0259h-5.5552c-0.432-1.4199-1.7383-2.4629-3.2974-2.4629   c-1.9087,0-3.4614,1.5532-3.4614,3.4619s1.5527,3.4614,3.4614,3.4614c1.5583,0,2.8641-1.0417,3.2968-2.4604h5.5558v4.6665H10.9543   c-0.4334-1.4172-1.7382-2.4575-3.2954-2.4575c-1.9087,0-3.4619,1.5527-3.4619,3.4614s1.5532,3.4619,3.4619,3.4619   c1.5601,0,2.8669-1.0445,3.2979-2.4658h12.498v3.4355H12.5247L8.576,88.269c-0.5267-0.324-1.1401-0.5205-1.8024-0.5205   c-1.9087,0-3.4614,1.5532-3.4614,3.4619s1.5527,3.4614,3.4614,3.4614s3.4619-1.5527,3.4619-3.4614   c0-0.5186-0.1227-1.006-0.3279-1.4481l3.4022-3.1608h10.145V97h51.3135V86.6015h9.9219l3.4021,3.1607   c-0.2052,0.4421-0.3279,0.9296-0.3279,1.4482c0,1.9087,1.5527,3.4614,3.4614,3.4614s3.4619-1.5527,3.4619-3.4614   s-1.5532-3.4619-3.4619-3.4619c-0.6622,0-1.2755,0.1965-1.8021,0.5204l-3.9484-3.6674h-10.707V81.166h12.2745   c0.431,1.4213,1.7382,2.4658,3.2983,2.4658c1.9087,0,3.4619-1.5532,3.4619-3.4619s-1.5532-3.4614-3.4619-3.4614   c-1.5573,0-2.8623,1.0403-3.2958,2.4575H74.7683v-4.6665h5.3326c0.4326,1.4187,1.738,2.4604,3.2963,2.4604   c1.9087,0,3.4619-1.5527,3.4619-3.4614s-1.5532-3.4619-3.4619-3.4619c-1.5591,0-2.8651,1.043-3.2969,2.4629h-5.332v-1.2011   L81.9426,65.667z M92.4968,63.2041c0.8062,0,1.4619,0.6558,1.4619,1.4619c0,0.8057-0.6558,1.4614-1.4619,1.4614   s-1.4619-0.6558-1.4619-1.4614C91.0349,63.8598,91.6907,63.2041,92.4968,63.2041z M5.5032,66.1274   c-0.8062,0-1.4619-0.6558-1.4619-1.4614c0-0.8061,0.6558-1.4619,1.4619-1.4619c0.8057,0,1.4614,0.6558,1.4614,1.4619   C6.9646,65.4716,6.3088,66.1274,5.5032,66.1274z M14.6023,74.9599c-0.8057,0-1.4614-0.6558-1.4614-1.4614   c0-0.8062,0.6558-1.4619,1.4614-1.4619c0.8062,0,1.4619,0.6558,1.4619,1.4619C16.0642,74.3042,15.4084,74.9599,14.6023,74.9599z    M7.6589,81.6318c-0.8062,0-1.4619-0.6558-1.4619-1.4619c0-0.8057,0.6558-1.4614,1.4619-1.4614   c0.8057,0,1.4614,0.6558,1.4614,1.4614C9.1204,80.976,8.4646,81.6318,7.6589,81.6318z M6.7737,92.6718   c-0.8057,0-1.4614-0.6558-1.4614-1.4614c0-0.8062,0.6558-1.4619,1.4614-1.4619c0.8062,0,1.4619,0.6558,1.4619,1.4619   C8.2356,92.0161,7.5798,92.6718,6.7737,92.6718z M91.2258,89.7485c0.8062,0,1.4619,0.6558,1.4619,1.4619   c0,0.8057-0.6558,1.4614-1.4619,1.4614c-0.8057,0-1.4614-0.6558-1.4614-1.4614C89.7644,90.4043,90.4202,89.7485,91.2258,89.7485z    M90.3411,78.7085c0.8062,0,1.4619,0.6558,1.4619,1.4614c0,0.8062-0.6558,1.4619-1.4619,1.4619s-1.4619-0.6558-1.4619-1.4619   C88.8792,79.3642,89.5349,78.7085,90.3411,78.7085z M83.3972,72.0366c0.8062,0,1.4619,0.6558,1.4619,1.4619   c0,0.8057-0.6558,1.4614-1.4619,1.4614c-0.8057,0-1.4614-0.6558-1.4614-1.4614C81.9358,72.6923,82.5916,72.0366,83.3972,72.0366z    M62.7058,29.8237H69.45v11.9467l-6.7441-5.994V29.8237z M72.7683,54.7944V95H25.4548V54.7944h-8.3252l31.9819-28.4243   l31.9819,28.4243H72.7683z"/><rect x="64.3187" y="47.4169" transform="matrix(-0.7475 -0.6643 0.6643 -0.7475 84.0937 128.8036)" width="4.4226" height="2.0005"/><rect x="51.3576" y="39.7702" transform="matrix(0.7475 0.6643 -0.6643 0.7475 41.7128 -28.1844)" width="13.1363" height="2.0005"/><rect x="39.6002" y="34.0461" transform="matrix(0.6641 0.7476 -0.7476 0.6641 43.9167 -16.75)" width="1.9998" height="12.9112"/><path d="M34.4934,47.2671l-1.3291-1.4951c-0.1033,0.0918-3.9112,3.4765-3.7876,3.3667l1.3281,1.4951   C30.8127,50.5379,34.7397,47.0481,34.4934,47.2671z"/><path d="M60.6287,64.4658c0-1.6025-1.3042-2.9067-2.9067-2.9067h-2.2734v-3.7651h-2v3.7651h-3.3369v-3.7651h-2v3.7651h-3.3369   v-3.7651h-2v3.7651h-2.2734c-1.6025,0-2.9067,1.3042-2.9067,2.9067v2.2739h-3.7656v2h3.7656v3.3369h-3.7656v2h3.7656v3.3369   h-3.7656v2h3.7656v2.2734c0,1.6025,1.3042,2.9067,2.9067,2.9067h2.2734v3.7656h2v-3.7656h3.3369v3.7656h2v-3.7656h3.3369v3.7656h2   v-3.7656h2.2734c1.6025,0,2.9067-1.3042,2.9067-2.9067v-2.2734h3.7656v-2h-3.7656v-3.3369h3.7656v-2h-3.7656v-3.3369h3.7656v-2   h-3.7656V64.4658z M58.6287,81.687c0,0.5-0.4067,0.9067-0.9067,0.9067H40.5012c-0.5,0-0.9067-0.4067-0.9067-0.9067V64.4658   c0-0.5,0.4067-0.9067,0.9067-0.9067h17.2207c0.5,0,0.9067,0.4067,0.9067,0.9067V81.687z"/><path d="M53.7834,65.498h-9.3433c-1.603,0-2.9067,1.3042-2.9067,2.9067v9.3433c0,1.603,1.3037,2.9067,2.9067,2.9067h9.3433   c1.603,0,2.9067-1.3037,2.9067-2.9067v-9.3433C56.6902,66.8022,55.3865,65.498,53.7834,65.498z M54.6902,77.748   c0,0.5-0.4067,0.9067-0.9067,0.9067h-9.3433c-0.5,0-0.9067-0.4067-0.9067-0.9067v-9.3433c0-0.5,0.4067-0.9067,0.9067-0.9067h9.3433   c0.5,0,0.9067,0.4067,0.9067,0.9067V77.748z"/><path d="M94.0984,22.6787c0-1.7012-0.1987-3.3965-0.5913-5.0391l-1.9453,0.4648c0.356,1.4902,0.5366,3.0293,0.5366,4.5742H94.0984z   "/><path d="M72.4197,1v2c8.3052,0,15.7588,5.2637,18.5474,13.0981l1.8838-0.6709C89.7795,6.7978,81.5691,1,72.4197,1z"/><path d="M88.1902,22.6787c0-6.2671-3.7183-11.9419-9.4727-14.4575l-0.8008,1.832c5.0259,2.1978,8.2734,7.1533,8.2734,12.6255   H88.1902z"/><path d="M72.4197,8.9082c1.3018,0,2.5898,0.1821,3.8286,0.5415l0.5571-1.9209c-1.4199-0.4116-2.8955-0.6206-4.3857-0.6206V8.9082z"/><path d="M78.1082,17.2573c1.4019,1.4707,2.1738,3.396,2.1738,5.4214h2c0-2.542-0.9683-4.957-2.7266-6.8013L78.1082,17.2573z"/><path d="M72.4197,14.8164c1.5723,0,3.0908,0.4648,4.3911,1.3442l1.1201-1.6572c-1.6323-1.1035-3.5381-1.687-5.5112-1.687V14.8164z"/><path d="M68.4656,22.6787c0,2.1802,1.7739,3.9541,3.9541,3.9541s3.9541-1.7739,3.9541-3.9541s-1.7739-3.9541-3.9541-3.9541   S68.4656,20.4985,68.4656,22.6787z M74.3738,22.6787c0,1.0776-0.8765,1.9541-1.9541,1.9541s-1.9541-0.8765-1.9541-1.9541   s0.8765-1.9541,1.9541-1.9541S74.3738,21.601,74.3738,22.6787z"/><path d="M3.6521,25.6328h2c0-1.5449,0.1807-3.084,0.5366-4.5742l-1.9453-0.4648C3.8508,22.2363,3.6521,23.9316,3.6521,25.6328z"/><path d="M4.8997,18.3813l1.8838,0.6709C9.572,11.2177,17.0256,5.9541,25.3308,5.9541v-2   C16.1814,3.9541,7.9709,9.7519,4.8997,18.3813z"/><path d="M9.5603,25.6328h2c0-5.4722,3.2476-10.4277,8.2734-12.6255l-0.8008-1.832C13.2786,13.6909,9.5603,19.3657,9.5603,25.6328z"/><path d="M25.3308,9.8623c-1.4902,0-2.9658,0.209-4.3857,0.6206l0.5571,1.9209c1.2388-0.3594,2.5269-0.5415,3.8286-0.5415V9.8623z"/><path d="M19.6423,20.2114l-1.4473-1.3799c-1.7583,1.8442-2.7266,4.2593-2.7266,6.8013h2   C17.4685,23.6074,18.2405,21.6821,19.6423,20.2114z"/><path d="M20.9397,19.1147c1.3003-0.8794,2.8188-1.3442,4.3911-1.3442v-2c-1.9731,0-3.8789,0.5835-5.5112,1.687L20.9397,19.1147z"/><path d="M25.3308,21.6787c-2.1802,0-3.9541,1.7739-3.9541,3.9541s1.7739,3.9541,3.9541,3.9541s3.9541-1.7739,3.9541-3.9541   S27.511,21.6787,25.3308,21.6787z M25.3308,27.5869c-1.0776,0-1.9541-0.8765-1.9541-1.9541s0.8765-1.9541,1.9541-1.9541   s1.9541,0.8765,1.9541,1.9541S26.4084,27.5869,25.3308,27.5869z"/><rect x="73.8953" y="32.0488" width="2" height="9.7651"/></g></svg>